<svg width="130" height="32" viewBox="0 0 130 32" fill="none" xmlns="http://www.w3.org/2000/svg">
<path d="M14.1708 30.1714L15.9995 32L32 15.9995L17.8281 1.82758L5.94201 13.7137L10.0564 17.8281L17.8281 10.0564L26.0569 18.2853L14.1708 30.1714Z" fill="#FF5A19"/>
<path d="M17.8293 1.82809L16.0006 -0.000545502L0.000110626 16L14.172 30.1719L26.0581 18.2858L21.9437 14.1713L14.172 21.943L5.94316 13.7142L17.8293 1.82809Z" fill="white"/>
<path d="M107.847 15.8206C107.425 15.8206 107.041 15.7095 106.697 15.4873C106.352 15.2539 106.075 14.9539 105.864 14.5873C105.652 14.2206 105.547 13.8317 105.547 13.4206V6.17037C105.547 5.73703 105.652 5.34813 105.864 5.00368C106.075 4.64811 106.352 4.36477 106.697 4.15365C107.041 3.93143 107.425 3.82031 107.847 3.82031H115.13C115.553 3.82031 115.936 3.93143 116.28 4.15365C116.625 4.36477 116.903 4.64811 117.114 5.00368C117.325 5.34813 117.431 5.73703 117.431 6.17037V13.4206C117.431 13.8317 117.325 14.2206 117.114 14.5873C116.903 14.9539 116.625 15.2539 116.28 15.4873C115.936 15.7095 115.553 15.8206 115.13 15.8206H107.847ZM108.73 13.5206H115.047C115.103 13.5206 115.147 13.5039 115.18 13.4706C115.225 13.4261 115.247 13.3761 115.247 13.3206V8.08709L108.73 13.5206ZM107.73 11.4872L114.247 6.0537H107.93C107.875 6.0537 107.825 6.07593 107.78 6.12037C107.747 6.15371 107.73 6.19815 107.73 6.25371V11.4872Z" fill="#FF5A19"/>
<path d="M119.264 15.8206V15.2373L122.814 10.9038L119.264 6.73706V6.15371H121.63L124.23 9.22045L126.831 6.15371H129.197V6.73706L125.647 10.9038L129.197 15.2373V15.8206H126.847L124.23 12.6205L121.63 15.8206H119.264Z" fill="#FF5A19"/>
<path d="M37 15.8206V3.82031H46.6669C47.0892 3.82031 47.4781 3.92587 47.8336 4.13699C48.1892 4.3481 48.4725 4.63144 48.6836 4.98701C48.8948 5.33146 49.0003 5.71481 49.0003 6.13704V13.5039C49.0003 13.9261 48.8948 14.315 48.6836 14.6706C48.4725 15.0151 48.1892 15.2928 47.8336 15.504C47.4781 15.7151 47.0892 15.8206 46.6669 15.8206H37ZM39.3834 13.6039H46.5669C46.6225 13.6039 46.6725 13.5872 46.7169 13.5539C46.7614 13.5095 46.7836 13.4595 46.7836 13.4039V6.23704C46.7836 6.18149 46.7614 6.13704 46.7169 6.10371C46.6725 6.05926 46.6225 6.03704 46.5669 6.03704H39.3834C39.3278 6.03704 39.2778 6.05926 39.2334 6.10371C39.2001 6.13704 39.1834 6.18149 39.1834 6.23704V13.4039C39.1834 13.4595 39.2001 13.5095 39.2334 13.5539C39.2778 13.5872 39.3278 13.6039 39.3834 13.6039Z" fill="white"/>
<path d="M53.1502 15.8206C52.7279 15.8206 52.339 15.7151 51.9835 15.504C51.639 15.2928 51.3612 15.0151 51.1501 14.6706C50.939 14.315 50.8334 13.9261 50.8334 13.5039V3.82031H53.0335V13.4039C53.0335 13.4595 53.0502 13.5095 53.0835 13.5539C53.1279 13.5872 53.1779 13.6039 53.2335 13.6039H60.4004C60.4559 13.6039 60.5059 13.5872 60.5504 13.5539C60.5948 13.5095 60.617 13.4595 60.617 13.4039V3.82031H62.8337V13.5039C62.8337 13.9261 62.7282 14.315 62.5171 14.6706C62.306 15.0151 62.0226 15.2928 61.6671 15.504C61.3226 15.7151 60.9393 15.8206 60.517 15.8206H53.1502Z" fill="white"/>
<path d="M68.9693 15.8206V6.03704H64.0692V3.82031H76.0695V6.03704H71.1861V15.8206H68.9693Z" fill="white"/>
<path d="M79.6328 15.8206C79.2105 15.8206 78.8216 15.7151 78.4661 15.504C78.1216 15.2928 77.8438 15.0151 77.6327 14.6706C77.4216 14.315 77.316 13.9261 77.316 13.5039V6.13704C77.316 5.71481 77.4216 5.33146 77.6327 4.98701C77.8438 4.63144 78.1216 4.3481 78.4661 4.13699C78.8216 3.92587 79.2105 3.82031 79.6328 3.82031H89.283V6.03704H80.0994C79.9216 6.03704 79.7772 6.08704 79.6661 6.18704C79.5661 6.28704 79.5161 6.43149 79.5161 6.62039V13.0206C79.5161 13.1983 79.5661 13.3428 79.6661 13.4539C79.7772 13.5539 79.9216 13.6039 80.0994 13.6039H89.283V15.8206H79.6328Z" fill="white"/>
<path d="M91.0375 15.8206V3.82031H93.2375V8.70377H101.104V3.82031H103.304V15.8206H101.104V10.9372H93.2375V15.8206H91.0375Z" fill="white"/>
<path d="M37.001 28.1797V20.1797H42.8795C43.1677 20.1797 43.4306 20.2538 43.6684 20.4019C43.9133 20.5501 44.1078 20.7501 44.2519 21.0019C44.4032 21.2464 44.4788 21.5204 44.4788 21.8241V23.3241C44.4788 23.4204 44.4716 23.513 44.4572 23.6019C44.45 23.6834 44.432 23.7612 44.4032 23.8352C44.5112 23.976 44.6013 24.1389 44.6733 24.3241C44.7454 24.5093 44.7814 24.6945 44.7814 24.8797V26.5352C44.7814 26.8315 44.7057 27.1056 44.5545 27.3575C44.4104 27.6093 44.2159 27.8093 43.9709 27.9575C43.7332 28.1056 43.4666 28.1797 43.1713 28.1797H37.001ZM38.6759 26.4464H43.0848V24.9797H38.6759V26.4464ZM38.6759 23.2464H42.7822V21.913H38.6759V23.2464Z" fill="white"/>
<path d="M45.9812 28.1797V20.1797H53.1673V21.913H47.6778V23.313H52.0975V25.0464H47.6778V26.4464H53.1673V28.1797H45.9812Z" fill="white"/>
<path d="M56.8913 28.1797V21.913H53.844V20.1797H61.6244V21.913H58.5771V28.1797H56.8913Z" fill="white"/>
<path d="M62.4542 28.1797V21.8241C62.4542 21.5204 62.5262 21.2464 62.6703 21.0019C62.8144 20.7501 63.0089 20.5501 63.2538 20.4019C63.4988 20.2538 63.7653 20.1797 64.0535 20.1797H68.6245C68.9198 20.1797 69.1864 20.2538 69.4241 20.4019C69.6691 20.5501 69.8636 20.7501 70.0077 21.0019C70.159 21.2464 70.2346 21.5204 70.2346 21.8241V28.1797H68.538V25.6019H64.1291V28.1797H62.4542ZM64.1291 23.8686H68.538V21.913H64.1291V23.8686Z" fill="white"/>
</svg>
